<?xml version="1.0" encoding="UTF-8" standalone="no"?>
<svg
   width="25"
   height="24"
   viewBox="0 0 25 24"
   fill="none"
   version="1.1"
   id="svg4"
   sodipodi:docname="search.svg"
   inkscape:version="1.1.2 (0a00cf5339, 2022-02-04)"
   xmlns:inkscape="http://www.inkscape.org/namespaces/inkscape"
   xmlns:sodipodi="http://sodipodi.sourceforge.net/DTD/sodipodi-0.dtd"
   xmlns="http://www.w3.org/2000/svg"
   xmlns:svg="http://www.w3.org/2000/svg">
  <defs
     id="defs8" />
  <sodipodi:namedview
     id="namedview6"
     pagecolor="#ffffff"
     bordercolor="#666666"
     borderopacity="1.0"
     inkscape:pageshadow="2"
     inkscape:pageopacity="0.0"
     inkscape:pagecheckerboard="0"
     showgrid="false"
     inkscape:zoom="19.583333"
     inkscape:cx="12.485106"
     inkscape:cy="12.025532"
     inkscape:window-width="1366"
     inkscape:window-height="704"
     inkscape:window-x="0"
     inkscape:window-y="0"
     inkscape:window-maximized="1"
     inkscape:current-layer="svg4" />
  <path
     d="M20.2547 21L13.8053 14.7C13.2934 15.1 12.7048 15.4167 12.0393 15.65C11.3739 15.8833 10.6658 16 9.91511 16C8.05535 16 6.48138 15.3708 5.1932 14.1125C3.90502 12.8542 3.26093 11.3167 3.26093 9.5C3.26093 7.68333 3.90502 6.14583 5.1932 4.8875C6.48138 3.62917 8.05535 3 9.91511 3C11.7749 3 13.3488 3.62917 14.637 4.8875C15.9252 6.14583 16.5693 7.68333 16.5693 9.5C16.5693 10.2333 16.4499 10.925 16.211 11.575C15.9721 12.225 15.648 12.8 15.2385 13.3L21.6879 19.6L20.2547 21ZM9.91511 14C11.1948 14 12.2825 13.5625 13.1782 12.6875C14.074 11.8125 14.5219 10.75 14.5219 9.5C14.5219 8.25 14.074 7.1875 13.1782 6.3125C12.2825 5.4375 11.1948 5 9.91511 5C8.63546 5 7.54776 5.4375 6.652 6.3125C5.75625 7.1875 5.30837 8.25 5.30837 9.5C5.30837 10.75 5.75625 11.8125 6.652 12.6875C7.54776 13.5625 8.63546 14 9.91511 14Z"
     fill="#B8ACAC"
     id="path2"
     style="fill:#303670;fill-opacity:1" />
</svg>
